<?xml version="1.0" encoding="UTF-8"?>
<svg width="229px" height="220px" viewBox="0 0 229 220" version="1.1" xmlns="http://www.w3.org/2000/svg" xmlns:xlink="http://www.w3.org/1999/xlink">
    <!-- Generator: Sketch 48.2 (47327) - http://www.bohemiancoding.com/sketch -->
    <title>code-cave-camp-logo</title>
    <desc>Created with Sketch.</desc>
    <defs></defs>
    <g id="Page-1" stroke="none" stroke-width="1" fill="none" fill-rule="evenodd">
        <g id="code-cave-camp-logo" transform="translate(0.000000, -10.000000)">
            <path d="M41.4185601,91 C41.4185601,91 72.6123734,90.356299 135,89.0688969 L132.221146,52 L50.3153243,52.7832395 C39.2842228,68.3163794 36.3186347,81.0552995 41.4185601,91 Z" id="Path-2" fill="#D9C5BC" fill-rule="nonzero"></path>
            <path d="M54.2101609,69.1438532 C43.0778684,79.0630077 43.2139594,88.7016324 48.5436374,98.9999999 C32.6950851,79.5619594 41.0222484,71.9536132 40.0877069,64.9623691 C42.5266774,65.8622929 44.2555554,65.8622929 45.2743407,64.9623691 C38.2719444,60.9880569 34.7707462,57.5470726 34.7707462,54.6394165 C38.3153867,56.0231193 41.2257065,56.4555408 43.5017057,55.9366812 C37.3053051,50.4421394 33.8047366,45.3085421 33,40.5358893 C35.8345782,40.2650864 41.0344336,37.9579483 48.599566,33.614475 C47.7826957,31.6666803 45.5089723,30.2968213 41.7783959,29.5048979 C46.3258427,25.6995743 55.4335448,24.0148999 69.1015021,24.4508749 C69.1015021,21.881661 66.8055029,19.2983786 62.2135046,16.7010277 C70.9900388,13.8752082 77.1838832,14.9242541 80.795038,19.8481655 C84.1385217,15.5128224 88.4673273,13.2171072 93.7814548,12.9610199 C91.9465386,16.7010277 93.7814548,19.8481655 93.7814548,19.8481655 C101.719288,16.7010277 103.056645,10.2192348 120.236876,12.4622984 C115.466436,16.7010277 116.821932,19.8481655 116.821932,19.8481655 C121.141569,17.123239 128.431105,19.8481655 132.914474,18.3978627 C133.923504,20.8548188 132.920239,24.3592723 129.904678,28.9112232 C131.911209,27.7598844 133.972951,27.3447932 136.089905,27.6659498 C133.307573,30.670942 132.65217,33.2632007 134.123695,35.4427262 C134.390963,34.7475311 136.022449,34.3999335 139.018155,34.3999335 C136.658528,39.8954437 138.015733,42.4537558 138.015733,42.4537558 C138.015733,42.4537558 140.25703,43.6207232 142.513008,40.2663276 C150.16141,51.0783077 149.924945,62.493125 141.104626,79.2793532 C141.993347,61.210902 115.926984,40.5060623 91.3962087,66.7511651 C93.4919339,60.7746473 89.2473759,56.6179617 88.6207023,56.7514781 C72.6492141,69.0011801 66.6573652,59.3015518 54.2101609,69.1438532 Z" id="hair" stroke="#43281C" stroke-width="2" fill="#43281C" fill-rule="nonzero" transform="translate(90.500000, 55.500000) rotate(12.000000) translate(-90.500000, -55.500000) "></path>
            <g id="cave" transform="translate(1.000000, 112.000000)" fill-rule="nonzero">
                <path d="M140.61157,1.2158266 C141.421836,1.58992919 142.045108,2.10431253 142.481405,2.75899207 C142.917702,3.4136716 143.135847,4.14627818 143.135847,4.95683379 C143.135847,5.51798768 142.980029,6.11030789 142.668388,6.73381221 L115.368802,48.5395676 C114.43388,50.5971319 113.000354,51.6258986 111.068182,51.6258986 C110.008604,51.6258986 109.136023,51.392088 108.450413,50.9244597 C107.764804,50.4568315 107.141532,49.6618754 106.580579,48.5395676 L79.2809917,6.73381221 C79.0316792,6.23500876 78.9070248,5.67386329 78.9070248,5.05035897 C78.9070248,3.36689732 79.7796056,2.08873264 81.5247934,1.2158266 C82.0857466,0.904074441 82.7401822,0.7482007 83.4881198,0.7482007 C84.2360575,0.7482007 84.9528203,0.950836563 85.6384298,1.35611437 C86.3240392,1.76139217 86.8538204,2.33812502 87.2277893,3.0863302 L110.97469,38.1582727 L134.534607,3.0863302 C134.908576,2.33812502 135.453939,1.76139217 136.170713,1.35611437 C136.887486,0.950836563 137.650995,0.7482007 138.46126,0.7482007 C139.271526,0.7482007 139.988289,0.904074441 140.61157,1.2158266 Z" id="v" fill="#222222" transform="translate(111.021436, 26.187050) scale(-1, 1) rotate(-180.000000) translate(-111.021436, -26.187050) "></path>
                <path d="M25.3362603,0 C32.6909803,0 38.7990459,2.80572734 43.6606405,8.41726619 C44.2839218,9.10312094 44.5955579,9.91366439 44.5955579,10.8489209 C44.5955579,12.2206304 43.9099586,13.374096 42.5387397,14.3093525 C41.9154583,14.7458055 41.1986955,14.9640288 40.3884298,14.9640288 C38.9548826,14.9640288 37.7395022,14.4028833 36.7422521,13.2805755 C35.1840487,11.5971139 33.4856325,10.3657113 31.6469525,9.58633094 C29.8082725,8.80695054 27.7047295,8.41726619 25.3362603,8.41726619 C20.5369939,8.41726619 16.6415439,10.0227657 13.6497934,13.2338129 C10.6580429,16.4448602 9.16219008,20.7002133 9.16219008,26 C9.16219008,29.3669233 9.86337109,32.3752865 11.2657541,35.0251799 C12.6681372,37.6750732 14.631444,39.748194 17.1557335,41.2446043 C19.680023,42.7410147 22.562656,43.4892086 25.803719,43.4892086 C30.0420322,43.4892086 33.4700282,42.3980924 36.0878099,40.2158273 C37.2720445,39.3429213 38.4250977,38.9064748 39.5470041,38.9064748 C40.419598,38.9064748 41.2298516,39.1870476 41.9777893,39.7482014 C43.1620238,40.7458083 43.7541322,41.8680993 43.7541322,43.1151079 C43.7541322,44.0503644 43.380169,44.8920826 42.6322314,45.6402878 C38.1446057,49.8177667 32.5351576,51.9064748 25.803719,51.9064748 C20.8797963,51.9064748 16.4545651,50.7841839 12.5278926,48.5395683 C8.60122004,46.2949528 5.53160542,43.1930654 3.31895661,39.2338129 C1.10630781,35.2745605 0,30.8633337 0,26 C0,21.0119655 1.07514421,16.5383891 3.22546488,12.5791367 C5.37578554,8.61988428 8.38307296,5.53358421 12.2474174,3.32014388 C16.1117617,1.10670356 20.4746658,0 25.3362603,0 Z" id="c" fill="#777777"></path>
                <path d="M62.8264463,0 C67.6257127,0 71.9730349,1.13787831 75.8685434,3.41366906 C79.7640518,5.68945982 82.8492483,8.80693464 85.1242252,12.7661871 C87.3992021,16.7254395 88.5366736,21.1366663 88.5366736,26 L88.5366736,46.8561151 C88.5366736,48.2278246 88.0848014,49.3657029 87.1810434,50.2697842 C86.2772854,51.1738654 85.139814,51.6258993 83.768595,51.6258993 C82.3973761,51.6258993 81.2599047,51.1738654 80.3561467,50.2697842 C79.4523887,49.3657029 79.0005165,48.2278246 79.0005165,46.8561151 L79.0005165,43.3956835 C76.8190318,46.076752 74.1701258,48.1654601 71.053719,49.6618705 C67.9373122,51.1582809 64.5716434,51.9064748 60.9566116,51.9064748 C56.4689858,51.9064748 52.402136,50.7841839 48.7559401,48.5395683 C45.1097442,46.2949528 42.2426929,43.1930654 40.1547004,39.2338129 C38.0667079,35.2745605 37.0227273,30.8633337 37.0227273,26 C37.0227273,21.1366663 38.1446169,16.7254395 40.3884298,12.7661871 C42.6322426,8.80693464 45.7330208,5.68945982 49.6908574,3.41366906 C53.648694,1.13787831 58.0271799,0 62.8264463,0 Z M62.8264463,43.4892086 C65.942853,43.4892086 68.7631589,42.7254273 71.2874483,41.1978417 C73.8117378,39.6702562 75.7906264,37.581548 77.2241736,34.9316547 C78.6577207,32.2817613 79.3744835,29.3045729 79.3744835,26 C79.3744835,22.6954271 78.6577207,19.7026513 77.2241736,17.0215827 C75.7906264,14.3405142 73.8117378,12.2362187 71.2874483,10.7086331 C68.7631589,9.18104752 65.942853,8.41726619 62.8264463,8.41726619 C59.7100395,8.41726619 56.8897337,9.18104752 54.3654442,10.7086331 C51.8411547,12.2362187 49.8466843,14.3405142 48.3819731,17.0215827 C46.917262,19.7026513 46.1849174,22.6954271 46.1849174,26 C46.1849174,29.3045729 46.917262,32.2817613 48.3819731,34.9316547 C49.8466843,37.581548 51.8411547,39.6702562 54.3654442,41.1978417 C56.8897337,42.7254273 59.7100395,43.4892086 62.8264463,43.4892086 Z" id="a" fill="#777777"></path>
                <path d="M180.906508,25.1582734 C180.906508,26.3429316 180.501381,27.3249362 179.691116,28.1043165 C178.88085,28.8836969 177.852451,29.2733813 176.605888,29.2733813 L141.079029,29.2733813 C141.764638,33.6379115 143.743527,37.1606581 147.015754,39.8417266 C150.287981,42.5227952 154.292504,43.8633094 159.029442,43.8633094 C160.899286,43.8633094 162.847011,43.5203871 164.872676,42.8345324 C166.89834,42.1486776 168.565593,41.3069594 169.874483,40.3093525 C170.747077,39.6234978 171.775476,39.2805755 172.959711,39.2805755 C174.143945,39.2805755 175.078853,39.592323 175.764463,40.2158273 C176.886369,41.1510838 177.447314,42.2110253 177.447314,43.3956835 C177.447314,44.5179912 176.948696,45.4532337 175.951446,46.2014388 C173.83229,47.8849005 171.198965,49.2565894 168.051395,50.3165468 C164.903824,51.3765041 161.896536,51.9064748 159.029442,51.9064748 C153.918535,51.9064748 149.337486,50.7997713 145.286157,48.5863309 C141.234828,46.3728906 138.071723,43.3021779 135.796746,39.3741007 C133.521769,35.4460235 132.384298,30.9880345 132.384298,26 C132.384298,21.0119655 133.459442,16.5383891 135.609762,12.5791367 C137.760083,8.61988428 140.751789,5.53358421 144.584969,3.32014388 C148.418149,1.10670356 152.765472,0 157.627066,0 C162.426333,0 166.571091,1.05994144 170.061467,3.17985612 C173.551843,5.29977079 176.231912,8.26137187 178.101756,12.0647482 C179.9716,15.8681245 180.906508,20.2325893 180.906508,25.1582734 Z M157.627066,8.04316547 C153.077112,8.04316547 149.384226,9.2901554 146.548295,11.7841727 C143.712365,14.2781899 141.920458,17.613888 141.172521,21.7913669 L172.305269,21.7913669 C171.744315,17.613888 170.186135,14.2781899 167.630682,11.7841727 C165.075228,9.2901554 161.740723,8.04316547 157.627066,8.04316547 Z" id="e" fill="#777777"></path>
            </g>
            <g id="code" transform="translate(0.000000, 42.000000)" fill="#25A9E1" fill-rule="nonzero">
                <path d="M26.6859737,21.786802 C34.4324943,21.786802 40.8659489,24.6091088 45.9865303,30.2538071 C46.6430151,30.9437147 46.9712526,31.7590477 46.9712526,32.6998308 C46.9712526,34.0796459 46.2491301,35.2399276 44.8048636,36.1807107 C44.1483788,36.6197427 43.3934326,36.8392555 42.5400023,36.8392555 C41.0300873,36.8392555 39.7499611,36.2747941 38.6995854,35.1458545 C37.0583734,33.452445 35.2694792,32.2137659 33.332849,31.42978 C31.3962189,30.6457942 29.1806159,30.2538071 26.6859737,30.2538071 C21.6310407,30.2538071 17.5280723,31.8687938 14.3769452,35.0988156 C11.2258182,38.3288374 9.65027831,42.609336 9.65027831,47.9404399 C9.65027831,51.3272589 10.3888126,54.353399 11.8659034,57.0189509 C13.3429942,59.6845029 15.4108903,61.769874 18.0696538,63.2751269 C20.7284172,64.7803798 23.7646139,65.5329949 27.1783348,65.5329949 C31.6424315,65.5329949 35.2530437,64.4354312 38.0102799,62.2402707 C39.257601,61.3622066 40.4720796,60.923181 41.6537523,60.923181 C42.572831,60.923181 43.4262484,61.2054117 44.2140302,61.7698816 C45.4613513,62.7733835 46.0850025,63.9023062 46.0850025,65.1566836 C46.0850025,66.0974666 45.6911175,66.9441587 44.9033358,67.6967851 C40.1766452,71.8989494 34.2683707,74 27.1783348,74 C21.9921049,74 17.3311327,72.8710773 13.1952785,70.613198 C9.05942426,68.3553187 5.82628512,65.2351017 3.49576408,61.2524535 C1.16524304,57.2698052 0,52.8325118 0,47.9404399 C0,42.9229304 1.13241929,38.422919 3.39729185,34.4402707 C5.66216441,30.4576225 8.82965606,27.353085 12.8998618,25.1265651 C16.9700676,22.9000453 21.5653922,21.786802 26.6859737,21.786802 Z" id="c"></path>
                <path d="M65.433086,21.786802 C70.605235,21.786802 75.237185,22.9000453 79.329075,25.1265651 C83.420965,27.353085 86.6289587,30.441943 88.9531522,34.3932318 C91.2773457,38.3445206 92.4394251,42.8602115 92.4394251,47.9404399 C92.4394251,52.9579495 91.293713,57.4422814 89.0022546,61.3935702 C86.7107962,65.344859 83.5191699,68.433717 79.4272799,70.6602369 C75.3353899,72.8867568 70.6707052,74 65.433086,74 C60.1954668,74 55.5144148,72.8867568 51.3897897,70.6602369 C47.2651646,68.433717 44.0571709,65.344859 41.7657125,61.3935702 C39.4742541,57.4422814 38.3285421,52.9579495 38.3285421,47.9404399 C38.3285421,42.8602115 39.4742541,38.3445206 41.7657125,34.3932318 C44.0571709,30.441943 47.2651646,27.353085 51.3897897,25.1265651 C55.5144148,22.9000453 60.1954668,21.786802 65.433086,21.786802 Z M65.433086,30.2538071 C62.0941038,30.2538071 59.0988852,31.0064223 56.4473405,32.5116751 C53.7957957,34.016928 51.7171468,36.1179786 50.2113313,38.81489 C48.7055157,41.5118014 47.9526193,44.553621 47.9526193,47.9404399 C47.9526193,51.3272589 48.7055157,54.353399 50.2113313,57.0189509 C51.7171468,59.6845029 53.7957957,61.769874 56.4473405,63.2751269 C59.0988852,64.7803798 62.0941038,65.5329949 65.433086,65.5329949 C68.7720683,65.5329949 71.7672868,64.7803798 74.4188315,63.2751269 C77.0703763,61.769874 79.1326579,59.6845029 80.6057383,57.0189509 C82.0788187,54.353399 82.8153479,51.3272589 82.8153479,47.9404399 C82.8153479,44.553621 82.0788187,41.5118014 80.6057383,38.81489 C79.1326579,36.1179786 77.0703763,34.016928 74.4188315,32.5116751 C71.7672868,31.0064223 68.7720683,30.2538071 65.433086,30.2538071 Z" id="o"></path>
                <path d="M133.274919,0 C134.780735,0 135.991916,0.437677626 136.908499,1.31304601 C137.825083,2.18841439 138.283368,3.34513383 138.283368,4.78323903 L138.283368,47.5510233 C138.283368,52.4280757 137.088554,56.851746 134.69889,60.8221669 C132.309226,64.7925878 129.068498,67.9188565 124.976608,70.201067 C120.884718,72.4832774 116.318237,73.6243655 111.277029,73.6243655 C106.23582,73.6243655 101.636605,72.4832774 97.4792444,70.201067 C93.3218841,67.9188565 90.0647885,64.7925878 87.7078599,60.8221669 C85.3509312,56.851746 84.1724846,52.4280757 84.1724846,47.5510233 C84.1724846,42.6739709 85.2690947,38.2503006 87.4623477,34.2798797 C89.6556008,30.3094588 92.6671866,27.1988214 96.4971957,24.9478742 C100.327205,22.6969269 104.599074,21.5714701 109.312931,21.5714701 C113.110205,21.5714701 116.645545,22.3217746 119.919057,23.8224062 C123.192569,25.3230377 125.975012,27.4176377 128.266471,30.1062692 L128.266471,4.78323903 C128.266471,3.34513383 128.741123,2.18841439 129.690441,1.31304601 C130.63976,0.437677626 131.834574,0 133.274919,0 Z M111.277029,65.1833554 C114.550541,65.1833554 117.513024,64.4174196 120.164569,62.8855249 C122.816114,61.3536302 124.894763,59.2433988 126.400578,56.5547674 C127.906394,53.8661359 128.65929,50.8649179 128.65929,47.5510233 C128.65929,44.2371287 127.906394,41.2515421 126.400578,38.5941738 C124.894763,35.9368054 122.816114,33.8422054 120.164569,32.3103107 C117.513024,30.778416 114.550541,30.0124802 111.277029,30.0124802 C108.003517,30.0124802 105.041033,30.778416 102.389488,32.3103107 C99.7379431,33.8422054 97.6429269,35.9368054 96.1043762,38.5941738 C94.5658256,41.2515421 93.7965618,44.2371287 93.7965618,47.5510233 C93.7965618,50.8649179 94.5658256,53.8661359 96.1043762,56.5547674 C97.6429269,59.2433988 99.7379431,61.3536302 102.389488,62.8855249 C105.041033,64.4174196 108.003517,65.1833554 111.277029,65.1833554 Z" id="d"></path>
                <path d="M183,47.0937394 C183,48.2853979 182.576448,49.2732053 181.729333,50.0571912 C180.882217,50.8411771 179.807047,51.2331641 178.503792,51.2331641 L141.361206,51.2331641 C142.077997,55.623485 144.146883,59.167048 147.567928,61.8639594 C150.988973,64.5608708 155.175617,65.9093063 160.127987,65.9093063 C162.082869,65.9093063 164.119175,65.5643577 166.236965,64.8744501 C168.354754,64.1845425 170.097832,63.3378505 171.46625,62.3343486 C172.378528,61.644441 173.453698,61.2994924 174.69179,61.2994924 C175.929882,61.2994924 176.907309,61.613082 177.624099,62.2402707 C178.797029,63.1810538 179.383485,64.2472586 179.383485,65.4389171 C179.383485,66.5678567 178.862191,67.5086257 177.819587,68.2612521 C175.604053,69.9546616 172.850968,71.334456 169.560249,72.4006768 C166.269529,73.4668976 163.125473,74 160.127987,74 C154.784641,74 149.99525,72.8867568 145.759671,70.6602369 C141.524091,68.433717 138.217131,65.344859 135.83869,61.3935702 C133.46025,57.4422814 132.271047,52.9579495 132.271047,47.9404399 C132.271047,42.9229304 133.395088,38.422919 135.643203,34.4402707 C137.891318,30.4576225 141.019084,27.353085 145.026593,25.1265651 C149.034103,22.9000453 153.579137,21.786802 158.661832,21.786802 C163.679364,21.786802 168.012623,22.8530068 171.661737,24.9854484 C175.310851,27.11789 178.112808,30.0969916 180.067691,33.9228426 C182.022573,37.7486937 183,42.1389487 183,47.0937394 Z M158.661832,29.8774958 C153.904951,29.8774958 150.044115,31.1318543 147.07921,33.6406091 C144.114304,36.1493639 142.240903,39.5047731 141.45895,43.7069374 L174.007584,43.7069374 C173.42112,39.5047731 171.792075,36.1493639 169.120402,33.6406091 C166.448729,31.1318543 162.962574,29.8774958 158.661832,29.8774958 Z" id="e"></path>
            </g>
            <g id="eyes" transform="translate(48.000000, 72.000000)">
                <g id="right-eye" transform="translate(45.375000, 0.000000)">
                    <ellipse id="Oval-Copy-4" fill="#FFFFFF" fill-rule="nonzero" cx="17.9504972" cy="17.3126132" rx="17.3420057" ry="17.3126132"></ellipse>
                    <path d="M23.3035277,3.66977774 C20.149426,4.63195779 17.8560761,7.55232851 17.8560761,11.0056053 C17.8560761,15.2425626 21.3084331,18.6772951 25.5671313,18.6772951 C28.3103166,18.6772951 30.7189409,17.2521814 32.0858284,15.1055195 C32.1939944,15.8291363 32.2500458,16.5697631 32.2500458,17.3234675 C32.2500458,25.5481492 25.5754889,32.2155711 17.3420057,32.2155711 C9.10852258,32.2155711 2.43396572,25.5481492 2.43396572,17.3234675 C2.43396572,9.09878575 9.10852258,2.43136385 17.3420057,2.43136385 C19.4615856,2.43136385 21.4778518,2.87322958 23.3035277,3.66977774 Z" id="Combined-Shape" fill="#391D0D" fill-rule="nonzero"></path>
                    <ellipse id="Oval-Copy" stroke="#391D0D" stroke-width="3" cx="17.3420057" cy="17.3126132" rx="17.3420057" ry="17.3126132"></ellipse>
                </g>
                <g id="left-eye">
                    <ellipse id="Oval-Copy-4" fill="#FFFFFF" fill-rule="nonzero" cx="17.9504972" cy="17.3126132" rx="17.3420057" ry="17.3126132"></ellipse>
                    <path d="M23.3035277,3.66977774 C20.149426,4.63195779 17.8560761,7.55232851 17.8560761,11.0056053 C17.8560761,15.2425626 21.3084331,18.6772951 25.5671313,18.6772951 C28.3103166,18.6772951 30.7189409,17.2521814 32.0858284,15.1055195 C32.1939944,15.8291363 32.2500458,16.5697631 32.2500458,17.3234675 C32.2500458,25.5481492 25.5754889,32.2155711 17.3420057,32.2155711 C9.10852258,32.2155711 2.43396572,25.5481492 2.43396572,17.3234675 C2.43396572,9.09878575 9.10852258,2.43136385 17.3420057,2.43136385 C19.4615856,2.43136385 21.4778518,2.87322958 23.3035277,3.66977774 Z" id="Combined-Shape" fill="#391D0D" fill-rule="nonzero"></path>
                    <ellipse id="Oval-Copy" stroke="#391D0D" stroke-width="3" cx="17.3420057" cy="17.3126132" rx="17.3420057" ry="17.3126132"></ellipse>
                </g>
            </g>
            <g id="camp-stamp" transform="translate(170.500000, 182.500000) rotate(12.000000) translate(-170.500000, -182.500000) translate(115.000000, 131.000000)">
                <g id="Rectangle-Copy" transform="translate(55.471324, 51.586558) rotate(-39.000000) translate(-55.471324, -51.586558) translate(4.971324, 27.086558)">
                    <g id="path-1-link" transform="translate(5.000000, 5.000000)" fill="#FFFFFF">
                        <rect id="path-1" x="0.40385833" y="0.3211827" width="90.4080387" height="38.5251715" rx="8"></rect>
                    </g>
                    <rect id="Rectangle-path" stroke="#000000" stroke-width="10" x="0.40385833" y="0.3211827" width="100.408039" height="48.5251715" rx="8"></rect>
                </g>
                <path d="M31.8392153,57.5976253 L31.8392153,59.2281796 C31.8392153,60.0434609 31.6644211,60.8154959 31.3148274,61.5443079 C30.9652336,62.2731199 30.4828015,62.9216294 29.8675166,63.4898557 C29.2522316,64.058082 28.5320794,64.5089505 27.7070382,64.8424746 C26.881997,65.1759987 25.9940423,65.3427583 25.0431474,65.3427583 C24.23209,65.3427583 23.4070612,65.2439378 22.5680362,65.0462939 C21.7290113,64.84865 20.9739002,64.5027783 20.3026802,64.0086684 C19.6314603,63.5145586 19.0791105,62.8784017 18.6456143,62.1001787 C18.2121181,61.3219557 17.9953732,60.3275746 17.9953732,59.1170055 L17.9953732,44.5902488 C17.9953732,43.7255566 18.1631757,42.9226402 18.4987857,42.1814754 C18.8343956,41.4403106 19.309836,40.7979775 19.9251209,40.2544567 C20.5404059,39.7109358 21.2745417,39.2847725 22.1275503,38.9759539 C22.980559,38.6671352 23.9244479,38.5127282 24.9592453,38.5127282 C26.9729051,38.5127282 28.6089792,39.0932985 29.8675166,40.2544567 C30.4828015,40.822683 30.9652336,41.4958975 31.3148274,42.2741205 C31.6644211,43.0523435 31.8392153,43.8984939 31.8392153,44.8125971 L31.8392153,46.2949193 L27.5602096,46.2949193 L27.5602096,45.0349455 C27.5602096,44.2937807 27.3224894,43.6514475 26.847042,43.1079267 C26.3715945,42.5644059 25.7283517,42.2926496 24.9172943,42.2926496 C23.8545294,42.2926496 23.1483606,42.5829347 22.7987669,43.1635138 C22.4491732,43.7440929 22.274379,44.4790702 22.274379,45.3684679 L22.274379,58.8575991 C22.274379,59.6234694 22.4631567,60.2658025 22.840718,60.7846178 C23.2182792,61.3034332 23.8964808,61.5628369 24.8753432,61.5628369 C25.1550182,61.5628369 25.4556643,61.519603 25.7772905,61.4331338 C26.0989167,61.3466645 26.3995628,61.2046101 26.6792378,61.0069662 C26.9309453,60.8093222 27.1406984,60.5375659 27.3085034,60.191689 C27.4763083,59.8458121 27.5602096,59.4134725 27.5602096,58.8946572 L27.5602096,57.5976253 L31.8392153,57.5976253 Z M45.1679282,55.8929549 L43.0703763,46.3319773 L42.9864743,46.3319773 L40.8889224,55.8929549 L45.1679282,55.8929549 Z M34.596267,65.12041 L41.2664818,38.7350765 L44.8323199,38.7350765 L51.5025347,65.12041 L47.223529,65.12041 L45.9649979,59.4505279 L40.1338038,59.4505279 L38.8752727,65.12041 L34.596267,65.12041 Z M54.8049498,65.12041 L54.8049498,38.7350765 L58.9161514,38.7350765 L64.4117372,52.7059624 L64.4956393,52.7059624 L69.949274,38.7350765 L74.1024267,38.7350765 L74.1024267,65.12041 L69.8234209,65.12041 L69.8234209,49.0742732 L69.7395188,49.0742732 L65.5024642,60.4140373 L63.3629613,60.4140373 L59.1678576,49.0742732 L59.0839556,49.0742732 L59.0839556,65.12041 L54.8049498,65.12041 Z M79.3345895,65.12041 L79.3345895,38.7350765 L85.7530981,38.7350765 C86.927733,38.7350765 87.9625148,38.8709547 88.8574748,39.1427151 C89.7524347,39.4144755 90.5634799,39.8962254 91.2906349,40.5879791 C92.0177898,41.2797329 92.5211972,42.0888256 92.8008722,43.0152816 C93.0805472,43.9417375 93.2203826,45.1955224 93.2203826,46.7766739 C93.2203826,47.9625375 93.1434731,48.963095 92.9896519,49.7783762 C92.8358306,50.5936574 92.5072175,51.3595162 92.0038025,52.0759755 C91.4164851,52.9406677 90.6334069,53.6138822 89.6545445,54.0956393 C88.675682,54.5773964 87.3891965,54.8182714 85.7950491,54.8182714 L83.6135952,54.8182714 L83.6135952,65.12041 L79.3345895,65.12041 Z M83.6135952,42.2926496 L83.6135952,51.2606983 L85.669196,51.2606983 C86.5361884,51.2606983 87.2073983,51.1495253 87.6828457,50.9271758 C88.1582932,50.7048264 88.5078817,50.3960124 88.7316217,50.0007245 C88.9553616,49.6301421 89.0882053,49.1730974 89.1301565,48.6295766 C89.1721077,48.0860557 89.1930831,47.4807803 89.1930831,46.813732 C89.1930831,46.1960947 89.1790995,45.6093481 89.151132,45.0534745 C89.1231645,44.4976009 88.9973127,44.0096748 88.7735727,43.5896814 C88.5498327,43.169688 88.2142278,42.8485215 87.7667478,42.626172 C87.3192679,42.4038226 86.6760251,42.2926496 85.8370001,42.2926496 L83.6135952,42.2926496 Z" id="CAMP" fill="#000000" fill-rule="nonzero" transform="translate(55.607878, 51.927743) rotate(-40.000000) translate(-55.607878, -51.927743) "></path>
            </g>
        </g>
    </g>
</svg>