<?xml version="1.0" encoding="UTF-8"?>
<svg width="169px" height="73px" viewBox="0 0 169 73" version="1.1" xmlns="http://www.w3.org/2000/svg" xmlns:xlink="http://www.w3.org/1999/xlink">
    <!-- Generator: Sketch 48.2 (47327) - http://www.bohemiancoding.com/sketch -->
    <title>Code Cave Logo - Black Background Copy 4</title>
    <desc>Created with Sketch.</desc>
    <defs>
        <rect id="path-1" x="1.01215088" y="10.4283613" width="38.0665426" height="16.1198951" rx="2"></rect>
    </defs>
    <g id="Home-Page" stroke="none" stroke-width="1" fill="none" fill-rule="evenodd" transform="translate(-136.000000, -13.000000)">
        <g id="Header">
            <g id="Code-Cave-Logo---Black-Background-Copy-4" transform="translate(136.000000, 10.000000)">
                <path d="M17.5930992,37.0731707 C17.5930992,37.0731707 30.5905214,36.7994267 56.5853659,36.2519386 L55.4275099,20.4878049 L21.3000843,20.8208898 C16.703792,27.4266029 15.4681303,32.8440298 17.5930992,37.0731707 Z" id="Path-2" fill="#D9C5BC"></path>
                <path d="M22.6554235,28.5878617 C17.9333482,32.7034627 17.91246,36.4642974 20.251808,40.9756098 C13.7322786,34.2083996 17.0613991,29.7536719 16.664987,26.8529034 C17.699545,27.2262948 18.4328973,27.2262948 18.8650438,26.8529034 C15.8947802,25.2039036 14.4096485,23.7761894 14.4096485,22.5697607 C15.9132075,23.143879 17.1477016,23.323297 18.1131307,23.1080146 C15.484753,20.8282496 13.9998883,18.6982457 13.6585366,16.7180029 C14.8609027,16.6056428 17.0665678,15.6483778 20.2755317,13.8462078 C19.9290332,13.0380395 18.9645694,12.4696651 17.3821404,12.1410846 C19.3110679,10.5622007 23.1743562,9.86320491 28.9720051,10.0440972 C28.9720051,8.97809315 27.9980924,7.90625185 26.050267,6.82857332 C29.7730811,5.65609984 32.4003746,6.0913642 33.9321476,8.1343664 C35.3503803,6.3355697 37.1865651,5.38304418 39.4407019,5.27678987 C38.6623705,6.82857332 39.4407019,8.1343664 39.4407019,8.1343664 C42.8077575,6.82857332 43.375035,4.13918349 50.6625135,5.0698631 C48.6389973,6.82857332 49.2139692,8.1343664 49.2139692,8.1343664 C51.0462646,7.00375488 54.1383265,8.1343664 56.0400739,7.53261476 C56.4680824,8.55204143 56.0425191,10.00609 54.763384,11.8947604 C55.6145106,11.4170532 56.4890567,11.2448259 57.3870222,11.3780784 C56.2068179,12.6248932 55.9288102,13.700459 56.552999,14.6047757 C56.666368,14.3163291 57.3584091,14.1721059 58.6291221,14.1721059 C57.6282196,16.4522727 58.2039164,17.5137534 58.2039164,17.5137534 C58.2039164,17.5137534 59.1546256,17.9979452 60.1115622,16.6061578 C63.3558474,21.0922051 63.2555442,25.8283782 59.5141573,32.7932276 C59.8911333,25.2963653 48.8343516,16.7056272 38.4289326,27.5951007 C39.3178934,25.1153569 37.5174447,23.3906878 37.2516234,23.4460857 C30.476867,28.5286646 27.9352556,24.5041482 22.6554235,28.5878617 Z" id="hair" stroke="#43281C" stroke-width="2" fill="#43281C" transform="translate(38.048780, 22.926829) rotate(12.000000) translate(-38.048780, -22.926829) "></path>
                <g id="code" transform="translate(0.000000, 16.585366)">
                    <path d="M11.0969263,9.19153151 C14.3181904,9.19153151 16.9934373,10.3822213 19.1227475,12.7636365 C19.395736,13.0546983 19.5322282,13.3986754 19.5322282,13.7955779 C19.5322282,14.3777016 19.2319454,14.8672074 18.6313707,15.26411 C18.3583822,15.4493312 18.0444502,15.5419404 17.6895651,15.5419404 C17.0616916,15.5419404 16.5293721,15.3038024 16.0925905,14.8275194 C15.4101193,14.1130948 14.6662369,13.5905143 13.8609208,13.2597622 C13.0556048,12.9290101 12.1342825,12.7636365 11.0969263,12.7636365 C8.99491497,12.7636365 7.28876256,13.4449756 5.97841785,14.8076743 C4.66807314,16.170373 4.01291061,17.9762525 4.01291061,20.2253669 C4.01291061,21.654216 4.32001805,22.9309 4.93424213,24.0554572 C5.54846621,25.1800144 6.40836703,26.0598018 7.51397038,26.6948459 C8.61957373,27.32989 9.88212652,27.6474072 11.3016666,27.6474072 C13.1579883,27.6474072 14.6594024,27.1843612 15.805954,26.2582553 C16.3246322,25.8878129 16.8296533,25.7025945 17.3210325,25.7025945 C17.7032164,25.7025945 18.0580961,25.8216635 18.3856823,26.059805 C18.9043604,26.4831677 19.1636956,26.9594436 19.1636956,27.488647 C19.1636956,27.8855495 18.9999049,28.2427565 18.6723188,28.5602785 C16.7068017,30.3331098 14.2499422,31.2195122 11.3016666,31.2195122 C9.14505762,31.2195122 7.20686847,30.7432363 5.48704104,29.7906702 C3.76721361,28.8381041 2.4227655,27.5217304 1.45365639,25.8415097 C0.484547286,24.161289 0,22.2892601 0,20.2253669 C0,18.1085533 0.470898067,16.2100647 1.41270833,14.5298439 C2.35451859,12.8496232 3.67166825,11.5398645 5.36419684,10.6005285 C7.05672542,9.66119247 8.96761613,9.19153151 11.0969263,9.19153151 Z" id="c" fill="#25A9E1"></path>
                    <path d="M27.2092801,9.19153151 C29.3600337,9.19153151 31.2861545,9.66119247 32.9877001,10.6005285 C34.6892457,11.5398645 36.0232375,12.8430083 36.9897154,14.5099989 C37.9561933,16.1769896 38.4394251,18.0820932 38.4394251,20.2253669 C38.4394251,22.3421804 37.9629994,24.2340541 37.0101339,25.9010448 C36.0572683,27.5680354 34.7300826,28.8711792 33.028537,29.8105152 C31.3269914,30.7498512 29.3872585,31.2195122 27.2092801,31.2195122 C25.0313017,31.2195122 23.0847627,30.7498512 21.3696047,29.8105152 C19.6544467,28.8711792 18.3204549,27.5680354 17.3675894,25.9010448 C16.4147238,24.2340541 15.9382982,22.3421804 15.9382982,20.2253669 C15.9382982,18.0820932 16.4147238,16.1769896 17.3675894,14.5099989 C18.3204549,12.8430083 19.6544467,11.5398645 21.3696047,10.6005285 C23.0847627,9.66119247 25.0313017,9.19153151 27.2092801,9.19153151 Z M27.2092801,12.7636365 C25.8208188,12.7636365 24.5753061,13.0811538 23.4727046,13.7161978 C22.370103,14.3512419 21.5057308,15.2376442 20.879562,16.3754315 C20.2533932,17.5132188 19.9403135,18.7965177 19.9403135,20.2253669 C19.9403135,21.654216 20.2533932,22.9309 20.879562,24.0554572 C21.5057308,25.1800144 22.370103,26.0598018 23.4727046,26.6948459 C24.5753061,27.32989 25.8208188,27.6474072 27.2092801,27.6474072 C28.5977413,27.6474072 29.843254,27.32989 30.9458556,26.6948459 C32.0484571,26.0598018 32.9060233,25.1800144 33.5185797,24.0554572 C34.1311361,22.9309 34.4374097,21.654216 34.4374097,20.2253669 C34.4374097,18.7965177 34.1311361,17.5132188 33.5185797,16.3754315 C32.9060233,15.2376442 32.0484571,14.3512419 30.9458556,13.7161978 C29.843254,13.0811538 28.5977413,12.7636365 27.2092801,12.7636365 Z" id="o" fill="#25A9E1"></path>
                    <path d="M55.4201983,0 C56.0463671,0 56.5500171,0.184649757 56.9311633,0.553954809 C57.3123095,0.923259862 57.5028798,1.41126279 57.5028798,2.01797823 L57.5028798,20.0610777 C57.5028798,22.1186345 57.0060359,23.9849159 56.0123332,25.6599781 C55.0186306,27.3350403 53.6710267,28.6539672 51.969481,29.6167982 C50.2679354,30.5796292 48.369039,31.0610375 46.2727348,31.0610375 C44.1764306,31.0610375 42.263922,30.5796292 40.5351516,29.6167982 C38.8063812,28.6539672 37.4519712,27.3350403 36.471881,25.6599781 C35.4917907,23.9849159 35.0017529,22.1186345 35.0017529,20.0610777 C35.0017529,18.003521 35.4577603,16.1372395 36.3697887,14.4621773 C37.2818172,12.7871151 38.534136,11.4747829 40.1267827,10.5251414 C41.7194294,9.57549981 43.4958164,9.10068615 45.455997,9.10068615 C47.0350313,9.10068615 48.5051447,9.41722859 49.8663812,10.050323 C51.2276177,10.6834173 52.3846513,11.5670983 53.3375169,12.7013924 L53.3375169,2.01797823 C53.3375169,1.41126279 53.5348932,0.923259862 53.9296518,0.553954809 C54.3244104,0.184649757 54.8212543,0 55.4201983,0 Z M46.2727348,27.4998995 C47.6339713,27.4998995 48.8658718,27.1767624 49.9684734,26.5304785 C51.071075,25.8841947 51.9354472,24.9939191 52.561616,23.859625 C53.1877847,22.7253309 53.5008644,21.4591611 53.5008644,20.0610777 C53.5008644,18.6629943 53.1877847,17.4034192 52.561616,16.2823146 C51.9354472,15.1612099 51.071075,14.277529 49.9684734,13.6312451 C48.8658718,12.9849613 47.6339713,12.6618242 46.2727348,12.6618242 C44.9114983,12.6618242 43.6795977,12.9849613 42.5769961,13.6312451 C41.4743946,14.277529 40.6032163,15.1612099 39.9634351,16.2823146 C39.323654,17.4034192 39.0037682,18.6629943 39.0037682,20.0610777 C39.0037682,21.4591611 39.323654,22.7253309 39.9634351,23.859625 C40.6032163,24.9939191 41.4743946,25.8841947 42.5769961,26.5304785 C43.6795977,27.1767624 44.9114983,27.4998995 46.2727348,27.4998995 Z" id="d" fill="#25A9E1"></path>
                    <path d="M76.097561,19.8681564 C76.097561,20.3708996 75.921434,20.787641 75.5691747,21.1183931 C75.2169154,21.4491452 74.7698238,21.6145188 74.2278864,21.6145188 L58.7827488,21.6145188 C59.0808143,23.4667307 59.941127,24.9617078 61.3637126,26.0994951 C62.7862981,27.2372823 64.5272458,27.8061674 66.5866078,27.8061674 C67.3995138,27.8061674 68.2462783,27.6606387 69.1269265,27.3695768 C70.0075747,27.078515 70.732405,26.721308 71.3014393,26.2979453 C71.6807954,26.0068835 72.1278871,25.8613547 72.6427276,25.8613547 C73.157568,25.8613547 73.564015,25.9936536 73.8620805,26.2582553 C74.3498242,26.6551578 74.5936923,27.1049739 74.5936923,27.6077172 C74.5936923,28.0840002 74.3769206,28.4808968 73.9433707,28.7984188 C73.0220772,29.5128434 71.8772517,30.0949584 70.5088598,30.5447813 C69.140468,30.9946041 67.8330637,31.2195122 66.5866078,31.2195122 C64.3646646,31.2195122 62.3730747,30.7498512 60.6117782,29.8105152 C58.8504818,28.8711792 57.4753364,27.5680354 56.4863007,25.9010448 C55.497265,24.2340541 55.0027545,22.3421804 55.0027545,20.2253669 C55.0027545,18.1085533 55.4701685,16.2100647 56.4050105,14.5298439 C57.3398524,12.8496232 58.6404826,11.5398645 60.30694,10.6005285 C61.9733974,9.66119247 63.8633756,9.19153151 65.9769313,9.19153151 C68.0633902,9.19153151 69.8653049,9.64134764 71.3827295,10.5409934 C72.9001541,11.4406391 74.065302,12.6974783 74.878208,14.3115486 C75.691114,15.925619 76.097561,17.777803 76.097561,19.8681564 Z M65.9769313,12.6048763 C63.9988599,12.6048763 62.3933946,13.1340717 61.1604871,14.1924785 C59.9275796,15.2508852 59.1485563,16.6664831 58.8233939,18.4393144 L72.3582119,18.4393144 C72.11434,16.6664831 71.4369285,15.2508852 70.3259569,14.1924785 C69.2149853,13.1340717 67.7653246,12.6048763 65.9769313,12.6048763 Z" id="e" fill="#25A9E1"></path>
                    <g id="cave" transform="translate(75.121951, 9.756098)">
                        <path d="M58.3592018,0.501842428 C58.6954932,0.656256255 58.954175,0.868572083 59.135255,1.13879628 C59.316335,1.40902048 59.4068736,1.71140969 59.4068736,2.04597298 C59.4068736,2.27759372 59.3422032,2.52207861 59.2128603,2.77943499 L47.8824834,20.0350939 C47.4944548,20.8843699 46.8994866,21.3090016 46.097561,21.3090016 C45.6577953,21.3090016 45.2956407,21.2124944 45.0110865,21.0194771 C44.7265322,20.8264598 44.4678504,20.4983354 44.2350333,20.0350939 L32.9046563,2.77943499 C32.801182,2.57354989 32.7494457,2.34193262 32.7494457,2.08457624 C32.7494457,1.38971402 33.1116002,0.862141358 33.8359202,0.501842428 C34.0687373,0.373164239 34.3403532,0.30882611 34.6507761,0.30882611 C34.9611989,0.30882611 35.258683,0.392465678 35.5432373,0.559747324 C35.8277915,0.72702897 36.0476711,0.965080049 36.2028825,1.2739077 L46.0587583,15.7501316 L55.8370288,1.2739077 C55.9922402,0.965080049 56.2185868,0.72702897 56.5160754,0.559747324 C56.8135639,0.392465678 57.1304492,0.30882611 57.4667406,0.30882611 C57.803032,0.30882611 58.1005161,0.373164239 58.3592018,0.501842428 Z" id="v" fill="#222222" transform="translate(46.078160, 10.808914) scale(1, -1) translate(-46.078160, -10.808914) "></path>
                        <path d="M10.5155211,0 C13.5680123,0 16.1030941,1.15808633 18.1208426,3.47429374 C18.3795283,3.75738575 18.5088692,4.09194403 18.5088692,4.47797859 C18.5088692,5.04416263 18.2243192,5.52026478 17.6552106,5.90629935 C17.3965249,6.08644882 17.0990409,6.1765222 16.7627494,6.1765222 C16.1677723,6.1765222 15.6633428,5.94490493 15.2494457,5.48166345 C14.6027314,4.78680123 13.8978235,4.27853001 13.1347007,3.95683453 C12.3715779,3.63513906 11.4985267,3.47429374 10.5155211,3.47429374 C8.52364119,3.47429374 6.90687982,4.13697647 5.66518847,5.46236182 C4.42349712,6.78774717 3.80266075,8.5441781 3.80266075,10.7317073 C3.80266075,12.1214318 4.0936778,13.3631577 4.67572062,14.4569223 C5.25776344,15.5506869 6.07261117,16.406384 7.12028825,17.0240393 C8.16796533,17.6416946 9.36436874,17.9505176 10.7095344,17.9505176 C12.4685971,17.9505176 13.8913471,17.5001507 14.9778271,16.5994034 C15.4693299,16.2391045 15.9478912,16.0589577 16.4135255,16.0589577 C16.7756855,16.0589577 17.1119718,16.1747663 17.4223947,16.4063871 C17.9138975,16.8181573 18.1596452,17.2813918 18.1596452,17.7961046 C18.1596452,18.1821391 18.0044361,18.529565 17.6940133,18.8383927 C15.8314763,20.5626804 13.5033399,21.4248114 10.7095344,21.4248114 C8.66591735,21.4248114 6.82927644,20.9615768 5.19955654,20.0350939 C3.56983664,19.1086109 2.29582869,17.8282821 1.37749446,16.1940691 C0.459160227,14.5598561 0,12.7390871 0,10.7317073 C0,8.67285629 0.446226136,6.82635197 1.3386918,5.19213897 C2.23115746,3.55792597 3.47929723,2.28403101 5.08314856,1.37041586 C6.68699989,0.456800719 8.49777262,0 10.5155211,0 Z" id="c" fill="#777777"></path>
                        <path d="M26.075388,0 C28.0672679,0 29.8715736,0.469668345 31.4883592,1.40901913 C33.1051448,2.34836991 34.3856198,3.6351325 35.3298226,5.2693455 C36.2740254,6.9035585 36.7461197,8.72432757 36.7461197,10.7317073 L36.7461197,19.3402351 C36.7461197,19.9064192 36.5585754,20.3760875 36.1834812,20.7492543 C35.8083869,21.122421 35.3362926,21.3090016 34.767184,21.3090016 C34.1980755,21.3090016 33.7259812,21.122421 33.3508869,20.7492543 C32.9757927,20.3760875 32.7882483,19.9064192 32.7882483,19.3402351 L32.7882483,17.9119144 C31.8828484,19.0185468 30.7834507,19.8806777 29.4900222,20.498333 C28.1965937,21.1159883 26.7997119,21.4248114 25.2993348,21.4248114 C23.4367978,21.4248114 21.7488989,20.9615768 20.2355876,20.0350939 C18.7222762,19.1086109 17.5323399,17.8282821 16.6657428,16.1940691 C15.7991457,14.5598561 15.3658537,12.7390871 15.3658537,10.7317073 C15.3658537,8.72432757 15.8314809,6.9035585 16.7627494,5.2693455 C17.694018,3.6351325 18.98096,2.34836991 20.6236142,1.40901913 C22.2662684,0.469668345 24.0835081,0 26.075388,0 Z M26.075388,17.9505176 C27.3688165,17.9505176 28.5393517,17.6352608 29.5870288,17.0047377 C30.6347059,16.3742145 31.4560207,15.5120836 32.0509978,14.418319 C32.6459749,13.3245544 32.943459,12.0956961 32.943459,10.7317073 C32.943459,9.36771851 32.6459749,8.13242643 32.0509978,7.025794 C31.4560207,5.91916157 30.6347059,5.05059682 29.5870288,4.4200737 C28.5393517,3.78955057 27.3688165,3.47429374 26.075388,3.47429374 C24.7819595,3.47429374 23.6114243,3.78955057 22.5637472,4.4200737 C21.5160701,5.05059682 20.6882883,5.91916157 20.0803769,7.025794 C19.4724655,8.13242643 19.1685144,9.36771851 19.1685144,10.7317073 C19.1685144,12.0956961 19.4724655,13.3245544 20.0803769,14.418319 C20.6882883,15.5120836 21.5160701,16.3742145 22.5637472,17.0047377 C23.6114243,17.6352608 24.7819595,17.9505176 26.075388,17.9505176 Z" id="a" fill="#777777"></path>
                        <path d="M75.0831486,10.3842779 C75.0831486,10.8732551 74.9150054,11.2785853 74.578714,11.6002808 C74.2424226,11.9219762 73.8155976,12.0828215 73.2982262,12.0828215 L58.5532151,12.0828215 C58.8377693,13.8843162 59.6590841,15.3383579 61.017184,16.4449903 C62.375284,17.5516228 64.0373146,18.1049307 66.0033259,18.1049307 C66.779383,18.1049307 67.5877637,17.9633868 68.4284922,17.6802948 C69.2692208,17.3972028 69.9611946,17.0497769 70.5044346,16.6380067 C70.8665946,16.3549147 71.2934196,16.2133708 71.7849224,16.2133708 C72.2764252,16.2133708 72.6644479,16.342047 72.9490022,16.5994034 C73.4146365,16.985438 73.6474501,17.4229373 73.6474501,17.9119144 C73.6474501,18.3751559 73.4405047,18.7611846 73.0266075,19.0700123 C72.1470762,19.7648745 71.0541455,20.33105 69.7477827,20.7685559 C68.4414199,21.2060617 67.1932802,21.4248114 66.0033259,21.4248114 C63.8821032,21.4248114 61.9807919,20.9680107 60.2993348,20.0543955 C58.6178778,19.1407804 57.3050675,17.8733192 56.3608647,16.251974 C55.4166619,14.6306288 54.9445676,12.7905583 54.9445676,10.7317073 C54.9445676,8.67285629 55.3907938,6.82635197 56.2832594,5.19213897 C57.1757251,3.55792597 58.4173978,2.28403101 60.0083149,1.37041586 C61.5992319,0.456800719 63.4035376,0 65.421286,0 C67.4131659,0 69.1334,0.437499281 70.5820399,1.31251097 C72.0306798,2.18752265 73.1430116,3.40994711 73.9190687,4.97982102 C74.6951258,6.54969493 75.0831486,8.35116255 75.0831486,10.3842779 Z M65.421286,3.31988068 C63.5328804,3.31988068 62.0001907,3.83458572 60.8231707,4.86401123 C59.6461508,5.89343674 58.9024406,7.27027271 58.5920177,8.99456045 L71.5133038,8.99456045 C71.2804866,7.27027271 70.6337821,5.89343674 69.5731707,4.86401123 C68.5125594,3.83458572 67.1286116,3.31988068 65.421286,3.31988068 Z" id="e" fill="#777777"></path>
                    </g>
                </g>
                <g id="eyes" transform="translate(20.487805, 30.243902)">
                    <g id="right-eye" transform="translate(18.764693, 0.000000)">
                        <ellipse id="Oval-Copy-4" fill="#FFFFFF" cx="7.42337326" cy="7.23872327" rx="7.17173348" ry="7.23872327"></ellipse>
                        <path d="M9.63710267,1.53440184 C8.33273355,1.93670709 7.3843257,3.15776802 7.3843257,4.60164683 C7.3843257,6.3731969 8.81203739,7.80932198 10.573209,7.80932198 C11.7076449,7.80932198 12.7037242,7.21345563 13.2689963,6.31589667 C13.313728,6.61845419 13.3369079,6.92812395 13.3369079,7.24326166 C13.3369079,10.682153 10.5766653,13.4699252 7.17173348,13.4699252 C3.76680168,13.4699252 1.00655909,10.682153 1.00655909,7.24326166 C1.00655909,3.80437035 3.76680168,1.01659813 7.17173348,1.01659813 C8.04827927,1.01659813 8.88209999,1.20135035 9.63710267,1.53440184 Z" id="Combined-Shape" fill="#391D0D"></path>
                        <ellipse id="Oval-Copy" stroke="#391D0D" cx="7.17173348" cy="7.23872327" rx="7.17173348" ry="7.23872327"></ellipse>
                    </g>
                    <g id="left-eye">
                        <ellipse id="Oval-Copy-4" fill="#FFFFFF" cx="7.42337326" cy="7.23872327" rx="7.17173348" ry="7.23872327"></ellipse>
                        <path d="M9.63710267,1.53440184 C8.33273355,1.93670709 7.3843257,3.15776802 7.3843257,4.60164683 C7.3843257,6.3731969 8.81203739,7.80932198 10.573209,7.80932198 C11.7076449,7.80932198 12.7037242,7.21345563 13.2689963,6.31589667 C13.313728,6.61845419 13.3369079,6.92812395 13.3369079,7.24326166 C13.3369079,10.682153 10.5766653,13.4699252 7.17173348,13.4699252 C3.76680168,13.4699252 1.00655909,10.682153 1.00655909,7.24326166 C1.00655909,3.80437035 3.76680168,1.01659813 7.17173348,1.01659813 C8.04827927,1.01659813 8.88209999,1.20135035 9.63710267,1.53440184 Z" id="Combined-Shape" fill="#391D0D"></path>
                        <ellipse id="Oval-Copy" stroke="#391D0D" cx="7.17173348" cy="7.23872327" rx="7.17173348" ry="7.23872327"></ellipse>
                    </g>
                </g>
                <g id="camp-stamp" transform="translate(145.752238, 57.550316) rotate(12.000000) translate(-145.752238, -57.550316) translate(125.752238, 39.013731)">
                    <g id="Rectangle-Copy" stroke-linecap="round" stroke-linejoin="round" transform="translate(20.045422, 18.488309) rotate(-39.000000) translate(-20.045422, -18.488309) ">
                        <use fill="#FFFFFF" fill-rule="evenodd" xlink:href="#path-1"></use>
                        <rect stroke="#000000" stroke-width="3" x="-0.487849123" y="8.92836125" width="41.0665426" height="19.1198951" rx="2"></rect>
                    </g>
                    <path d="M10.0375643,21.0046569 L10.0375643,21.6869216 C10.0375643,22.0280556 9.96396668,22.3510944 9.81676933,22.6560475 C9.66957197,22.9610007 9.46644267,23.2323533 9.20737532,23.4701134 C8.94830798,23.7078735 8.64508597,23.8965281 8.29770021,24.036083 C7.95031445,24.1756378 7.57643878,24.2454142 7.17606197,24.2454142 C6.83456411,24.2454142 6.48718356,24.2040652 6.1339099,24.121366 C5.78063625,24.0386669 5.46269473,23.8939455 5.18007581,23.6871976 C4.89745689,23.4804497 4.66488855,23.2142657 4.48236383,22.8886378 C4.29983911,22.5630098 4.20857812,22.1469359 4.20857812,21.6404035 L4.20857812,15.5620453 C4.20857812,15.2002364 4.27923179,14.8642761 4.42054125,14.5541542 C4.56185071,14.2440324 4.76203611,13.9752641 5.02110346,13.7478414 C5.28017081,13.5204187 5.58928062,13.3421013 5.94844216,13.2128839 C6.30760371,13.0836664 6.70503061,13.0190587 7.14073478,13.0190587 C7.98859155,13.0190587 8.67746484,13.2619838 9.20737532,13.7478414 C9.46644267,13.9856015 9.66957197,14.2672913 9.81676933,14.5929193 C9.96396668,14.9185472 10.0375643,15.2725977 10.0375643,15.6550814 L10.0375643,16.275322 L8.23587763,16.275322 L8.23587763,15.7481175 C8.23587763,15.4379956 8.13578493,15.1692273 7.93559653,14.9418046 C7.73540813,14.7143819 7.46456905,14.6006723 7.12307119,14.6006723 C6.67559123,14.6006723 6.37825703,14.7221349 6.23105967,14.9650637 C6.08386232,15.2079925 6.01026474,15.5155254 6.01026474,15.8876716 L6.01026474,21.5318614 C6.01026474,21.8523207 6.08975012,22.1210889 6.24872327,22.3381742 C6.40769641,22.5552595 6.693255,22.6638006 7.10540759,22.6638006 C7.22316548,22.6638006 7.34975331,22.6457104 7.48517487,22.6095295 C7.62059644,22.5733486 7.74718427,22.5139095 7.86494215,22.4312103 C7.97092425,22.3485112 8.05924134,22.2348015 8.12989607,22.090078 C8.2005508,21.9453544 8.23587763,21.7644527 8.23587763,21.5473674 L8.23587763,21.0046569 L10.0375643,21.0046569 Z M15.6496539,20.2913801 L14.7664742,16.290828 L14.731147,16.290828 L13.8479673,20.2913801 L15.6496539,20.2913801 Z M11.1984281,24.1523781 L14.0069396,13.1120948 L15.5083451,13.1120948 L18.3168566,24.1523781 L16.51517,24.1523781 L15.9852622,21.7799576 L13.5300226,21.7799576 L13.0001147,24.1523781 L11.1984281,24.1523781 Z M19.7073472,24.1523781 L19.7073472,13.1120948 L21.4383795,13.1120948 L23.7523103,18.9578628 L23.7876375,18.9578628 L26.0839048,13.1120948 L27.8326006,13.1120948 L27.8326006,24.1523781 L26.030914,24.1523781 L26.030914,17.4382732 L25.9955868,17.4382732 L24.2115638,22.1831141 L23.3107205,22.1831141 L21.544361,17.4382732 L21.5090338,17.4382732 L21.5090338,24.1523781 L19.7073472,24.1523781 Z M30.0356165,24.1523781 L30.0356165,13.1120948 L32.7381465,13.1120948 C33.2327296,13.1120948 33.6684272,13.1689496 34.0452524,13.2826609 C34.4220777,13.3963723 34.7635704,13.5979485 35.0697409,13.8873956 C35.3759114,14.1768426 35.5878724,14.5153873 35.7056303,14.9030396 C35.8233882,15.2906919 35.8822663,15.8153069 35.8822663,16.4769002 C35.8822663,16.9730952 35.8498833,17.3917534 35.7851165,17.7328875 C35.7203497,18.0740216 35.5819862,18.394476 35.370022,18.6942605 C35.1227305,19.0560693 34.7930133,19.3377591 34.3808607,19.5393384 C33.9687081,19.7409176 33.42703,19.8417057 32.7558101,19.8417057 L31.8373032,19.8417057 L31.8373032,24.1523781 L30.0356165,24.1523781 Z M31.8373032,14.6006723 L31.8373032,18.3531281 L32.7028193,18.3531281 C33.0678687,18.3531281 33.3504834,18.3066106 33.5506718,18.213574 C33.7508602,18.1205374 33.8980554,17.9913219 33.9922617,17.8259236 C34.086468,17.6708627 34.1424021,17.4796237 34.1600658,17.252201 C34.1777295,17.0247783 34.1865612,16.7715159 34.1865612,16.4924062 C34.1865612,16.2339713 34.1806734,15.9884619 34.1688976,15.7558705 C34.1571218,15.5232791 34.1041316,15.3191186 34.0099253,15.1433829 C33.915719,14.9676471 33.7744116,14.833263 33.585999,14.7402264 C33.3975864,14.6471899 33.1267473,14.6006723 32.7734737,14.6006723 L31.8373032,14.6006723 Z" id="CAMP" fill="#000000" transform="translate(20.045422, 18.632236) rotate(-40.000000) translate(-20.045422, -18.632236) "></path>
                </g>
            </g>
        </g>
    </g>
</svg>